# xmcd
#
# Track frame offsets:
#	150
#	16282
#	33987
#	46536
#	62776
#	75560
#	93430
#	111905
#	128993
#	145583
#	157334
#	174785
#	194706
#	211332
#	225728
#	240726
#	263249
#	277673
#	290092
#	308052
#	323547
#	341846
#
# Disc length: 4725 seconds
#
# Revision: 0
# Processed by: cddbd v1.5.2PL0 Copyright (c) Steve Scherf et al.
# Submitted via: EasyCDDAExtractor 10.2.0.1
#
DISCID=35127316
DTITLE=Various Artist - Country Hits, Vol. 02
DYEAR=2007
DGENRE=Country
TTITLE0=Tim McGraw - All I Want Is A Life
TTITLE1=Travis Tritt - Never Get Away From Me
TTITLE2=Tim McGraw - Give It To Me Strait
TTITLE3=Ricky Lynn Gregg - That's What Happens
TTITLE4=The Notorious Cherry Bombs - Wait A Minute
TTITLE5=Tim McGraw - Maybe We Should Just Sleep On It
TTITLE6=Travis Tritt - I'm Gonna Be Somebody
TTITLE7=The Kentucky Headhunters - Walk Softly On This Heart Of Mine
TTITLE8=Tim McGraw - Hard On the Ticker
TTITLE9=The Notorious Cherry Bombs - Oklahoma Dust
TTITLE10=Travis Tritt - Only You
TTITLE11=The Notorious Cherry Bombs - It's Hard To Kiss The Lips At Night That
TTITLE11=Chew Your Ass Out All Day Long
TTITLE12=Tim McGraw - You Turn Me On
TTITLE13=Travis Tritt - It's All About To Change
TTITLE14=Ricky Lynn Gregg - The Change (Is Gonna Do Me Good)
TTITLE15=Tim McGraw - Back When
TTITLE16=The Kentucky Headhunters - Oh Lonesome Me
TTITLE17=The Notorious Cherry Bombs - Sweet Little Lisa
TTITLE18=Tim McGraw - Train #10
TTITLE19=The Notorious Cherry Bombs - If I Ever Break Your Heart
TTITLE20=Travis Tritt - You Really Wouldn't Want Me That Way
TTITLE21=Tim McGraw - Refried Dreams
EXTD=
EXTT0=
EXTT1=
EXTT2=
EXTT3=
EXTT4=
EXTT5=
EXTT6=
EXTT7=
EXTT8=
EXTT9=
EXTT10=
EXTT11=
EXTT12=
EXTT13=
EXTT14=
EXTT15=
EXTT16=
EXTT17=
EXTT18=
EXTT19=
EXTT20=
EXTT21=
PLAYORDER=
